<svg xmlns="http://www.w3.org/2000/svg" width="18" height="18" fill="none"><path fill="#4285F4" fill-rule="evenodd" d="M18 9.205q-.002-.957-.167-1.841h-8.65v3.481h4.943c-.213 1.125-.86 2.078-1.832 2.717v2.258h2.968C16.998 14.253 18 11.946 18 9.205" clip-rule="evenodd"/><path fill="#34A853" fill-rule="evenodd" d="M9.184 18c2.48 0 4.558-.806 6.078-2.18l-2.968-2.258c-.823.54-1.875.859-3.11.859-2.392 0-4.417-1.584-5.139-3.71H.977v2.331C2.488 15.983 5.594 18 9.184 18" clip-rule="evenodd"/><path fill="#FBBC05" fill-rule="evenodd" d="M4.045 10.71A5.3 5.3 0 0 1 3.757 9c0-.593.104-1.17.288-1.71V4.958H.977a8.85 8.85 0 0 0 0 8.084z" clip-rule="evenodd"/><path fill="#EA4335" fill-rule="evenodd" d="M9.184 3.58c1.348 0 2.559.454 3.51 1.346l2.634-2.582C13.738.892 11.66 0 9.184 0 5.594 0 2.488 2.017.977 4.958L4.045 7.29c.722-2.127 2.747-3.71 5.139-3.71" clip-rule="evenodd"/></svg>