<svg xmlns="http://www.w3.org/2000/svg" width="48" height="48" fill="none"><circle cx="24" cy="24" r="24" fill="#1D1E17"/><mask id="a" width="48" height="49" x="0" y="-1" maskUnits="userSpaceOnUse" style="mask-type:alpha"><circle cx="24" cy="24" r="24" fill="#1D1E17"/></mask><g stroke="#fff" mask="url(#a)"><path d="M35.5 24c0 7.92-2.215 15.067-5.77 20.222-3.556 5.156-8.419 8.277-13.73 8.277-5.312 0-10.174-3.12-13.73-8.277C-1.286 39.067-3.5 31.919-3.5 24S-1.285 8.932 2.27 3.777C5.825-1.379 10.688-4.5 16-4.5s10.174 3.12 13.73 8.277C33.286 8.932 35.5 16.08 35.5 24Z"/><path d="M51.5 24c0 7.92-2.215 15.067-5.77 20.222-3.556 5.156-8.418 8.277-13.73 8.277-5.311 0-10.174-3.12-13.73-8.277C14.715 39.067 12.5 31.919 12.5 24s2.215-15.068 5.77-20.223C21.826-1.379 26.689-4.5 32-4.5c5.312 0 10.174 3.12 13.73 8.277C49.286 8.932 51.5 16.08 51.5 24Z"/></g><path stroke="#fff" d="M48 15.92H0m48 15.895H0"/></svg>